# xmcd CD database file
#
# Track frame offsets:
#	150
#	18640
#	35552
#	64767
#	79062
#	98160
#	130165
#	150167
#	171927
#	187270
#	213025
#	239040
#	262375
#
# Disc length: 3772 seconds
#
# Revision: 0
# Processed by: cddbd v1.5.1PL0 Copyright (c) Steve Scherf et al.
# Submitted via: CDex 1.51
#
DISCID=b70eba0d
DTITLE=ゼロ戦 - SUNRISE
DYEAR=2003
DGENRE=Jazz
TTITLE0=Sunrise
TTITLE1=Circuit
TTITLE2=Leaving Tonight
TTITLE3=Son of Pin Head
TTITLE4=High Way
TTITLE5=What's Going On
TTITLE6=Spanish Fly
TTITLE7=Cool Head
TTITLE8=Scrumble
TTITLE9=Body Talk
TTITLE10=Whisper of Devil
TTITLE11=Why He Never Know
TTITLE12=Twilight
EXTD=YEAR: 2003
EXTT0=
EXTT1=
EXTT2=
EXTT3=
EXTT4=
EXTT5=
EXTT6=
EXTT7=
EXTT8=
EXTT9=
EXTT10=
EXTT11=
EXTT12=
PLAYORDER=
